<?xml version="1.0" standalone="no"?>
<!DOCTYPE svg PUBLIC "-//W3C//DTD SVG 20010904//EN"
 "http://www.w3.org/TR/2001/REC-SVG-20010904/DTD/svg10.dtd">
<svg version="1.0" xmlns="http://www.w3.org/2000/svg"
 width="667.000000pt" height="723.000000pt" viewBox="0 0 667.000000 723.000000"
 preserveAspectRatio="xMidYMid meet">
<metadata>
Created by potrace 1.15, written by Peter Selinger 2001-2017
</metadata>
<g transform="translate(0.000000,723.000000) scale(0.100000,-0.100000)"
fill="#000000" stroke="none">
<path d="M6200 7130 l0 -100 225 0 225 0 0 100 0 100 -225 0 -225 0 0 -100z"/>
<path d="M60 3490 l0 -3430 3295 0 3295 0 0 3430 0 3430 -3295 0 -3295 0 0
-3430z m6580 0 l0 -3420 -85 0 -85 0 0 3420 0 3420 85 0 85 0 0 -3420z"/>
</g>
</svg>
