<?xml version="1.0" standalone="no"?>
<!DOCTYPE svg PUBLIC "-//W3C//DTD SVG 20010904//EN"
 "http://www.w3.org/TR/2001/REC-SVG-20010904/DTD/svg10.dtd">
<svg version="1.0" xmlns="http://www.w3.org/2000/svg"
 width="524.000000pt" height="418.000000pt" viewBox="0 0 524.000000 418.000000"
 preserveAspectRatio="xMidYMid meet">
<metadata>
Created by potrace 1.15, written by Peter Selinger 2001-2017
</metadata>
<g transform="translate(0.000000,418.000000) scale(0.100000,-0.100000)"
fill="#000000" stroke="none">
<path d="M4985 4063 c-43 -41 -97 -87 -120 -101 -22 -15 -57 -41 -78 -59 -20
-18 -48 -33 -61 -33 -14 0 -28 -4 -31 -10 -3 -5 -16 -10 -27 -10 -12 0 -29 -6
-37 -14 -9 -7 -41 -23 -71 -34 -30 -11 -73 -30 -95 -41 -21 -12 -51 -21 -65
-21 -14 0 -30 -4 -35 -9 -6 -5 -50 -19 -100 -31 -49 -12 -103 -28 -118 -36
-16 -8 -34 -14 -40 -14 -11 0 -50 -10 -242 -65 -27 -8 -82 -19 -122 -24 -40
-5 -82 -16 -95 -25 -12 -9 -39 -16 -58 -16 -20 0 -40 -4 -45 -9 -6 -5 -64 -15
-129 -21 -65 -6 -131 -16 -145 -22 -35 -13 -446 -23 -593 -13 -88 5 -118 10
-118 20 0 7 13 16 30 20 16 4 32 11 35 16 4 5 21 9 38 9 18 0 91 22 162 49 72
27 171 59 222 70 51 12 125 35 164 52 40 16 95 36 123 43 60 17 302 116 348
143 40 23 52 78 21 100 -15 12 -243 14 -1288 14 -698 0 -1392 2 -1541 6 -150
3 -289 2 -309 -1 -36 -7 -37 -9 -31 -39 3 -18 17 -72 32 -122 15 -49 28 -115
30 -145 8 -118 26 -238 44 -295 12 -38 21 -99 23 -166 3 -62 10 -115 18 -130
15 -28 26 -98 39 -254 8 -103 17 -174 40 -335 9 -66 13 -82 57 -245 23 -88 38
-189 68 -470 9 -77 21 -153 27 -170 6 -16 14 -57 19 -90 19 -137 29 -217 42
-337 7 -70 18 -133 24 -140 6 -7 13 -47 16 -90 3 -42 10 -85 16 -96 6 -12 11
-40 11 -64 0 -24 12 -81 26 -128 15 -47 35 -139 46 -205 11 -66 22 -126 24
-133 5 -18 160 -16 214 3 23 8 66 15 94 15 60 1 226 24 276 39 19 6 55 11 80
11 59 0 191 18 261 36 31 8 103 14 164 14 60 0 136 4 169 10 196 31 306 43
426 49 131 6 135 7 138 29 5 31 -55 109 -184 242 -87 90 -174 198 -174 215 0
3 396 5 880 5 l881 0 72 71 c40 39 82 78 94 86 28 19 93 124 93 150 0 10 6 28
14 39 8 11 30 62 50 114 20 52 43 110 51 128 8 18 15 40 15 50 1 9 8 35 16 57
9 22 24 74 33 115 10 41 23 86 29 100 5 14 13 49 17 77 4 29 11 55 16 59 5 3
9 18 9 33 0 16 8 39 19 52 10 13 22 44 26 69 4 25 10 50 14 55 4 6 17 48 30
95 13 47 27 94 31 105 21 51 30 93 36 169 3 44 10 90 15 101 5 11 16 85 26
165 22 192 31 1240 11 1240 -7 -1 -49 -35 -93 -77z m56 -1018 c-6 -27 -16
-101 -21 -164 -6 -63 -15 -121 -19 -130 -5 -9 -11 -55 -15 -102 -5 -79 -14
-122 -36 -174 -4 -11 -18 -58 -31 -105 -13 -47 -26 -89 -30 -95 -4 -5 -10 -30
-14 -55 -4 -25 -14 -53 -22 -62 -16 -18 -26 -52 -49 -161 -8 -38 -17 -73 -20
-79 -4 -6 -15 -45 -25 -87 -10 -42 -24 -94 -33 -116 -8 -22 -15 -47 -16 -56 0
-9 -8 -36 -18 -60 -10 -24 -32 -78 -48 -119 -15 -41 -36 -88 -46 -105 -10 -16
-18 -38 -18 -48 0 -29 -68 -127 -95 -137 -14 -5 -29 -18 -33 -28 -4 -9 -30
-39 -58 -65 l-51 -47 -881 0 -882 0 -16 -25 c-9 -13 -12 -30 -8 -37 21 -35 77
-102 154 -183 95 -99 200 -224 200 -237 0 -4 -38 -8 -85 -8 -76 0 -260 -21
-439 -51 -37 -6 -116 -11 -175 -10 -59 1 -120 -3 -135 -8 -38 -15 -232 -43
-288 -42 -26 0 -59 -4 -73 -9 -36 -14 -142 -30 -260 -40 -55 -5 -121 -15 -146
-22 -26 -7 -67 -12 -91 -10 l-44 4 -21 116 c-11 65 -32 155 -47 202 -14 47
-26 104 -26 128 0 24 -5 52 -11 64 -6 11 -13 54 -16 96 -3 43 -11 88 -18 102
-7 14 -18 77 -24 140 -7 63 -16 149 -22 190 -6 41 -14 102 -18 135 -5 33 -13
74 -19 90 -6 17 -18 93 -27 170 -30 281 -45 382 -68 470 -44 163 -48 179 -57
245 -5 36 -14 101 -21 145 -6 44 -15 130 -20 190 -12 152 -23 226 -38 253 -7
13 -16 79 -20 145 -4 67 -13 133 -20 146 -16 29 -41 188 -41 264 0 53 -8 90
-55 251 l-14 49 352 -6 c194 -4 893 -7 1555 -7 1065 0 1202 -2 1202 -15 0 -22
-157 -94 -330 -152 -41 -14 -107 -38 -145 -53 -69 -28 -153 -52 -238 -69 -23
-5 -96 -30 -162 -55 -65 -25 -134 -46 -151 -46 -18 0 -35 -4 -39 -9 -3 -5 -19
-12 -35 -16 -60 -13 -82 -86 -32 -107 39 -17 683 -18 732 -1 19 7 87 17 150
24 63 6 119 15 125 20 5 5 25 9 45 9 19 0 46 7 58 16 13 9 55 20 95 25 73 9
105 17 258 63 47 14 93 26 103 26 10 0 30 6 44 14 15 7 68 24 117 36 50 12 94
26 99 31 6 5 22 9 36 9 15 0 48 11 73 24 26 13 68 31 95 41 26 10 54 24 63 31
8 8 25 14 37 14 11 0 24 5 27 10 3 6 17 10 30 10 13 0 42 16 66 36 23 19 55
42 71 50 15 8 60 44 100 80 l73 65 3 -483 c2 -312 -1 -501 -7 -533z"/>
<path d="M2895 3599 c-16 -6 -59 -19 -95 -31 -36 -11 -92 -36 -126 -54 -33
-19 -75 -34 -93 -34 -17 0 -57 -9 -89 -21 -31 -11 -77 -24 -102 -28 -48 -9
-183 -46 -315 -85 -159 -48 -318 -84 -415 -93 -73 -7 -86 -20 -94 -96 -7 -63
-44 -215 -72 -297 -8 -25 -20 -65 -26 -90 -6 -25 -17 -55 -25 -66 -9 -14 -13
-41 -11 -71 l3 -48 47 -3 c36 -2 58 3 90 22 52 30 374 139 478 161 41 9 102
27 135 40 33 12 80 26 105 30 25 3 77 17 115 30 39 12 83 26 98 29 l29 7 -57
-109 c-58 -111 -229 -349 -353 -492 -75 -85 -220 -279 -342 -455 -150 -216
-230 -329 -280 -395 -27 -36 -49 -71 -50 -77 0 -10 215 -13 1028 -15 l1027 -3
-55 -42 c-55 -41 -238 -130 -380 -183 -41 -16 -100 -39 -130 -53 -30 -13 -75
-28 -100 -32 -83 -13 -174 -38 -240 -66 -36 -15 -101 -33 -145 -40 -44 -7 -90
-18 -102 -26 -12 -7 -33 -13 -46 -13 -31 0 -47 -18 -47 -55 0 -55 116 -151
286 -236 l89 -44 429 -3 c286 -2 436 0 450 7 12 6 75 15 140 21 66 6 126 16
134 23 11 9 87 11 296 10 155 -1 308 -3 341 -5 l60 -3 7 75 c4 41 16 118 27
170 12 52 21 109 21 127 0 18 9 55 20 83 13 33 22 86 26 153 3 56 12 122 19
147 16 54 24 99 35 200 5 41 16 106 24 145 9 38 16 100 16 136 0 36 4 79 10
95 5 16 19 99 30 184 11 85 25 189 30 230 6 41 17 110 25 154 18 96 19 126 2
126 -7 0 -21 -15 -31 -34 -22 -42 -74 -81 -261 -196 -138 -86 -363 -200 -392
-200 -10 0 -13 56 -13 247 0 302 4 328 101 683 35 127 49 277 28 291 -8 5
-251 9 -541 9 -297 0 -528 4 -528 9 0 19 -93 127 -123 143 -36 19 -77 21 -122
7z m91 -49 c26 0 39 -8 67 -42 19 -24 42 -58 51 -75 l17 -33 531 0 531 0 -7
-72 c-6 -67 -38 -206 -71 -308 -8 -25 -26 -103 -40 -175 -22 -117 -25 -155
-25 -382 0 -250 6 -303 34 -303 20 0 271 114 315 143 20 13 90 57 156 97 66
40 136 86 156 101 l37 29 -9 -43 c-5 -23 -13 -76 -19 -117 -5 -41 -21 -154
-35 -250 -15 -96 -28 -206 -30 -244 -3 -70 -21 -180 -35 -226 -5 -14 -9 -42
-9 -63 -1 -51 -18 -151 -37 -208 -8 -26 -14 -64 -13 -85 3 -61 -12 -163 -32
-223 -11 -30 -19 -66 -19 -80 0 -14 -11 -82 -25 -151 -13 -69 -25 -140 -25
-159 l0 -33 -67 8 c-105 14 -588 11 -605 -4 -8 -6 -68 -16 -134 -22 -65 -6
-131 -15 -145 -21 -17 -7 -171 -9 -442 -7 l-415 3 -96 49 c-91 47 -172 101
-223 149 -31 28 -30 57 1 57 13 0 29 7 36 15 7 8 27 15 44 15 46 1 143 24 206
50 75 30 139 49 224 65 70 13 322 111 506 197 109 52 200 126 200 164 0 13 -1
25 -2 26 -2 2 -458 5 -1014 8 l-1011 5 41 53 c50 66 158 218 266 375 112 163
252 350 320 427 81 92 279 354 322 425 20 33 54 96 76 141 22 44 47 86 56 93
19 16 21 38 4 43 -6 2 -63 -13 -127 -34 -64 -22 -146 -45 -183 -53 -38 -8 -85
-22 -105 -30 -21 -9 -83 -27 -138 -40 -127 -30 -392 -118 -469 -156 -78 -38
-106 -38 -106 -1 0 15 5 33 11 39 6 6 17 35 24 65 7 29 20 73 28 98 9 25 20
65 27 90 6 25 17 70 25 100 7 30 16 80 20 112 l7 56 52 5 c78 7 185 27 250 48
33 11 69 19 80 19 12 0 44 9 73 20 29 11 85 27 125 36 40 9 95 25 121 35 26
11 61 19 77 19 16 0 59 11 96 25 36 14 82 25 100 25 21 0 66 17 113 41 89 47
231 92 246 78 5 -5 24 -9 41 -9z"/><path d="M4704 4011 c-28 -11 -118 -26 -200 -35 -82 -9 -185 -24 -229 -32 -77
-15 -204 -26 -465 -42 -69 -4 -131 -11 -138 -15 -6 -5 -31 -9 -55 -9 -23 0
-53 -5 -67 -10 -66 -25 -242 -29 -1550 -34 -762 -4 -1389 -10 -1394 -14 -14
-13 -1 -35 31 -51 45 -23 168 -106 182 -123 8 -9 18 -16 24 -16 5 0 25 -11 44
-26 41 -31 43 -62 5 -112 -77 -100 -149 -199 -155 -212 -4 -8 -18 -33 -32 -55
-13 -22 -24 -47 -25 -56 0 -8 -18 -50 -40 -93 -22 -42 -40 -85 -40 -95 0 -10
-7 -24 -15 -31 -8 -7 -15 -20 -15 -30 0 -9 -13 -47 -30 -83 -16 -37 -30 -73
-30 -81 0 -9 -9 -34 -21 -56 -12 -22 -25 -57 -31 -78 -5 -20 -16 -62 -23 -92
-16 -61 -38 -137 -48 -160 -3 -8 -8 -44 -10 -80 -3 -36 -12 -121 -21 -190 -17
-132 -20 -614 -7 -1055 l6 -210 69 -3 68 -3 40 43 c22 24 47 56 55 72 8 16 44
69 79 117 35 49 64 93 64 97 0 5 12 19 26 33 14 13 36 47 49 74 12 28 39 76
61 109 21 32 46 70 54 85 14 24 16 -12 22 -379 3 -233 11 -430 17 -465 7 -33
14 -76 17 -95 3 -19 9 -44 14 -55 5 -11 11 -44 14 -74 3 -30 9 -58 14 -63 5
-5 33 -8 62 -6 45 3 56 7 69 29 28 46 74 102 132 159 88 85 186 170 197 170 5
0 16 7 23 16 8 9 31 28 52 41 21 13 42 34 46 46 5 12 45 61 90 110 44 48 81
90 81 95 0 4 26 35 58 68 87 92 152 174 152 190 0 8 31 50 70 92 116 128 191
215 214 249 11 17 57 73 101 123 44 51 82 97 84 103 12 33 205 263 227 271 12
4 14 -55 14 -352 0 -370 -4 -419 -56 -717 -8 -49 -18 -110 -21 -134 -5 -33
-15 -53 -44 -81 -35 -33 -119 -77 -119 -62 0 30 53 331 60 344 6 10 10 43 10
73 0 47 -3 55 -19 55 -20 0 -323 -319 -399 -419 -13 -17 -29 -31 -36 -31 -12
0 -96 -103 -96 -116 0 -3 -8 -18 -19 -32 -10 -15 -22 -43 -26 -62 -4 -19 -11
-39 -15 -45 -4 -5 -10 -26 -13 -45 -3 -19 -8 -45 -12 -57 -15 -46 3 -48 540
-51 377 -2 511 0 545 9 25 7 119 15 210 18 l165 6 26 49 c15 27 32 77 39 110
7 34 21 79 31 102 11 22 19 51 19 65 0 14 9 42 20 64 11 22 20 51 20 66 0 14
9 34 20 44 10 9 24 34 30 54 7 20 19 52 27 71 9 19 23 51 31 70 8 19 19 42 24
50 4 8 11 22 14 30 11 29 24 55 43 85 11 17 20 37 20 46 1 14 23 65 76 174 14
28 25 55 25 62 0 12 89 195 99 203 3 3 27 47 53 97 56 109 176 258 225 278 18
8 33 19 33 24 0 6 5 11 11 11 6 0 32 15 58 32 60 43 76 53 136 83 28 14 64 36
80 50 17 14 34 25 38 25 13 0 94 64 120 96 13 16 45 67 70 113 37 65 47 93 47
129 0 48 15 146 31 198 5 18 12 68 16 113 3 45 10 84 15 87 4 3 8 45 8 93 0
79 5 104 55 256 30 93 59 173 65 179 5 5 10 20 10 32 0 12 7 27 15 34 8 7 15
20 15 30 0 9 9 29 20 43 11 14 20 34 20 45 0 11 7 25 15 32 8 7 15 19 15 27 0
7 9 31 20 53 23 44 27 119 8 122 -7 0 -26 3 -43 5 -16 2 -93 6 -170 8 -118 3
-148 1 -191 -14z m301 -31 c3 -5 22 -10 41 -10 40 0 43 -13 14 -70 -11 -22
-20 -46 -20 -53 0 -8 -7 -20 -15 -27 -8 -7 -15 -21 -15 -32 0 -11 -9 -31 -20
-45 -11 -14 -20 -34 -20 -43 0 -10 -7 -23 -15 -30 -8 -7 -15 -22 -15 -34 0
-12 -5 -27 -10 -32 -6 -6 -35 -86 -65 -179 -49 -149 -55 -178 -55 -251 0 -46
-4 -85 -8 -88 -5 -3 -12 -44 -15 -91 -3 -47 -10 -100 -16 -118 -15 -52 -31
-150 -31 -196 0 -62 -84 -216 -148 -271 -26 -22 -50 -40 -54 -40 -4 0 -38 -19
-75 -42 -38 -24 -77 -49 -88 -55 -11 -7 -38 -21 -60 -32 -22 -11 -49 -29 -59
-40 -11 -12 -23 -21 -28 -21 -13 0 -68 -40 -116 -85 -54 -50 -129 -145 -166
-208 -48 -84 -176 -336 -176 -348 0 -5 -20 -52 -45 -104 -24 -51 -47 -106 -51
-122 -4 -15 -16 -41 -26 -58 -18 -30 -31 -57 -42 -85 -3 -8 -10 -22 -15 -30
-5 -8 -17 -33 -26 -55 -10 -22 -22 -48 -27 -59 -6 -10 -16 -40 -24 -66 -8 -26
-23 -55 -34 -65 -11 -10 -20 -30 -20 -44 0 -15 -9 -43 -20 -64 -11 -20 -20
-49 -20 -64 0 -16 -7 -41 -15 -57 -9 -16 -23 -61 -31 -100 -9 -39 -25 -88 -35
-109 l-19 -37 -138 0 c-89 0 -156 -5 -192 -15 -45 -12 -142 -15 -520 -15 -256
0 -481 3 -501 6 -37 6 -37 7 -31 48 3 22 8 43 13 46 4 3 11 23 15 45 12 63 79
160 142 204 18 12 39 35 46 49 8 15 36 50 63 78 26 27 95 103 153 168 74 82
106 112 108 100 2 -9 -1 -26 -7 -38 -13 -26 -72 -396 -65 -408 13 -20 86 7
167 62 55 37 72 63 80 120 3 25 13 86 21 135 53 302 56 344 56 747 0 293 -3
387 -12 390 -22 8 -64 -21 -117 -79 -104 -115 -166 -190 -181 -219 -8 -16 -53
-73 -100 -127 -47 -55 -96 -116 -110 -137 -23 -36 -46 -62 -193 -224 -32 -35
-66 -79 -76 -98 -21 -41 -91 -127 -144 -177 -21 -19 -46 -49 -57 -66 -10 -16
-40 -52 -66 -80 -26 -27 -65 -72 -87 -100 -42 -53 -109 -115 -124 -115 -5 0
-25 -16 -44 -36 -18 -20 -59 -54 -89 -77 -70 -51 -140 -118 -140 -134 0 -7
-18 -30 -40 -50 -22 -21 -40 -44 -40 -50 0 -19 -57 -16 -64 3 -3 9 -6 31 -6
50 0 19 -4 42 -9 52 -34 67 -50 299 -51 735 0 397 0 397 -62 310 -18 -27 -37
-55 -43 -64 -5 -9 -26 -41 -47 -70 -20 -30 -48 -79 -63 -110 -14 -31 -37 -67
-51 -80 -13 -12 -24 -26 -24 -31 0 -4 -28 -48 -63 -96 -34 -48 -71 -100 -81
-117 -40 -64 -67 -85 -111 -85 l-42 0 -6 263 c-12 447 -8 829 9 957 8 63 18
144 20 180 3 36 9 74 13 85 8 20 20 63 46 165 34 135 47 174 64 185 6 3 11 18
11 33 0 15 14 56 30 90 17 35 30 72 30 82 0 10 7 23 15 30 8 7 15 19 15 26 0
8 4 22 8 32 43 87 72 151 78 172 4 14 16 41 28 60 12 19 26 42 31 51 6 9 33
47 60 83 116 155 115 154 115 193 0 36 -5 41 -82 98 -45 33 -86 62 -92 65 -6
3 -31 19 -55 35 l-45 30 1317 6 c1281 6 1472 10 1526 31 35 13 150 28 296 39
368 26 396 29 515 54 36 7 123 19 194 25 71 7 152 20 180 30 57 21 280 28 291
10z"/>
</g>
</svg>
