<?xml version="1.0" standalone="no"?>
<!DOCTYPE svg PUBLIC "-//W3C//DTD SVG 20010904//EN"
 "http://www.w3.org/TR/2001/REC-SVG-20010904/DTD/svg10.dtd">
<svg version="1.0" xmlns="http://www.w3.org/2000/svg"
 width="536.000000pt" height="487.000000pt" viewBox="0 0 536.000000 487.000000"
 preserveAspectRatio="xMidYMid meet">
<metadata>
Created by potrace 1.15, written by Peter Selinger 2001-2017
</metadata>
<g transform="translate(0.000000,487.000000) scale(0.100000,-0.100000)"
fill="#000000" stroke="none">
<path id="1" title="Land 1" class="land" d="M4180 2400 l0 -2360 545 0 545 0 0 2360 0 2360 -545 0 -545 0 0
-2360z m1040 0 l0 -2310 -495 0 -495 0 0 2310 0 2310 495 0 495 0 0 -2310z"/>

<path id="2" title="Land 2" class="land" d="M270 3755 l0 -995 1925 0 1925 0 0 995 0 995 -1925 0 -1925 0 0 -995z
m3800 0 l0 -945 -1875 0 -1875 0 0 945 0 945 1875 0 1875 0 0 -945z"/>

<path id="3" title="Land 3" class="land" d="M270 1755 l0 -975 1260 0 1260 0 0 975 0 975 -1260 0 -1260 0 0 -975z
m2470 0 l0 -925 -1210 0 -1210 0 0 925 0 925 1210 0 1210 0 0 -925z"/>

<path id="4" title="Land 4" class="land" d="M1532 753 l-1282 -3 0 -360 0 -360 1945 0 1945 0 0 365 0 365 -662
-2 c-365 -2 -1240 -4 -1946 -5z"/>

<path id="5" title="Land 5" class="land" d="M2810 1755 l0 -985 670 0 670 0 0 985 0 985 -670 0 -670 0 0 -985z
m1290 5 l0 -940 -620 0 -620 0 0 940 0 940 620 0 620 0 0 -940z"/>


</g>
</svg>
